<?xml version="1.0" encoding="UTF-8" standalone="no"?>
<!-- Uploaded to: SVG Repo, www.svgrepo.com, Generator: SVG Repo Mixer Tools -->

<svg
   fill="#000000"
   width="800px"
   height="800px"
   viewBox="0 0 32 32"
   version="1.1"
   id="svg1"
   sodipodi:docname="clipboarda.svg"
   inkscape:version="1.4 (86a8ad7, 2024-10-11)"
   xmlns:inkscape="http://www.inkscape.org/namespaces/inkscape"
   xmlns:sodipodi="http://sodipodi.sourceforge.net/DTD/sodipodi-0.dtd"
   xmlns="http://www.w3.org/2000/svg"
   xmlns:svg="http://www.w3.org/2000/svg"
   xmlns:rdf="http://www.w3.org/1999/02/22-rdf-syntax-ns#"
   xmlns:cc="http://creativecommons.org/ns#"
   xmlns:dc="http://purl.org/dc/elements/1.1/">
  <defs
     id="defs1" />
  <sodipodi:namedview
     id="namedview1"
     pagecolor="#ffffff"
     bordercolor="#000000"
     borderopacity="0.25"
     inkscape:showpageshadow="2"
     inkscape:pageopacity="0.0"
     inkscape:pagecheckerboard="0"
     inkscape:deskcolor="#d1d1d1"
     inkscape:zoom="1.01875"
     inkscape:cx="400"
     inkscape:cy="400"
     inkscape:window-width="1920"
     inkscape:window-height="1017"
     inkscape:window-x="-8"
     inkscape:window-y="-8"
     inkscape:window-maximized="1"
     inkscape:current-layer="svg1" />
  <title
     id="title1">clipboard</title>
  <path
     d="m 1.077008,24.044374 q -0.19380356,0.723285 0.1727602,1.358193 0.3665647,0.634907 1.0898496,0.828711 L 23.203615,31.82177 q 0.723286,0.193803 1.358194,-0.172761 0.634908,-0.366564 0.856529,-1.082396 L 31.478431,7.9500401 Q 31.672236,7.2267552 31.277852,6.5843932 30.883469,5.9420311 30.188003,5.7556817 L 26.71067,4.8239332 25.778921,8.3012658 27.531497,8.7708672 22.410608,27.882289 5.0239429,23.223546 10.144832,4.1121246 11.86959,4.5742718 12.801338,1.0969388 9.3240051,0.16519032 Q 8.60072,-0.02861344 7.9658122,0.33795074 7.3309044,0.70451486 7.1371007,1.4278001 Z M 7.2108459,21.960937 21.120178,25.687931 25.316773,10.026023 23.592017,9.5638761 Q 23.398213,10.287161 22.728032,10.67409 22.057853,11.061019 21.36984,10.84685 L 14.415174,8.9833536 Q 13.691888,8.7895503 13.325325,8.1546418 12.95876,7.5197342 13.160018,6.7686301 L 11.407442,6.2990295 Z M 13.622165,5.0438731 q -0.193803,0.7232853 0.172761,1.358193 0.366564,0.6349081 1.089849,0.8287116 l 6.954666,1.863497 q 0.723285,0.1938037 1.358193,-0.1727606 0.634908,-0.3665642 0.856531,-1.082395 L 24.985912,4.3617854 21.50858,3.4300373 21.978182,1.6774617 18.500849,0.74571312 18.031247,2.4982887 14.553914,1.5665401 Z M 17.099498,5.9756214 17.5691,4.2230457 21.046432,5.1547944 20.576831,6.90737 Z"
     id="path1"
     style="stroke-width:0.9;fill:#0c5009;fill-opacity:1" />
  <metadata
     id="metadata1">
    <rdf:RDF>
      <cc:Work
         rdf:about="">
        <dc:title>clipboard</dc:title>
      </cc:Work>
    </rdf:RDF>
  </metadata>
</svg>
