<?xml version="1.0" encoding="UTF-8" standalone="no"?>
<!-- Uploaded to: SVG Repo, www.svgrepo.com, Generator: SVG Repo Mixer Tools -->

<svg
   version="1.0"
   id="Layer_1"
   width="800px"
   height="800px"
   viewBox="0 0 64 64"
   enable-background="new 0 0 64 64"
   xml:space="preserve"
   sodipodi:docname="trashcan.svg"
   inkscape:version="1.4 (86a8ad7, 2024-10-11)"
   xmlns:inkscape="http://www.inkscape.org/namespaces/inkscape"
   xmlns:sodipodi="http://sodipodi.sourceforge.net/DTD/sodipodi-0.dtd"
   xmlns="http://www.w3.org/2000/svg"
   xmlns:svg="http://www.w3.org/2000/svg"><defs
   id="defs5" /><sodipodi:namedview
   id="namedview5"
   pagecolor="#ffffff"
   bordercolor="#000000"
   borderopacity="0.25"
   inkscape:showpageshadow="2"
   inkscape:pageopacity="0.0"
   inkscape:pagecheckerboard="0"
   inkscape:deskcolor="#d1d1d1"
   inkscape:zoom="1.01875"
   inkscape:cx="400.4908"
   inkscape:cy="400"
   inkscape:window-width="1920"
   inkscape:window-height="1017"
   inkscape:window-x="-8"
   inkscape:window-y="-8"
   inkscape:window-maximized="1"
   inkscape:current-layer="Layer_1" />
<g
   id="g5"
   style="fill:#0c5009;fill-opacity:1">
	<path
   fill="#231F20"
   d="M56,4H40c0-2.211-1.789-4-4-4h-8c-2.211,0-4,1.789-4,4H8C5.789,4,4,5.789,4,8v5c0,0.553,0.447,1,1,1h54   c0.553,0,1-0.447,1-1V8C60,5.789,58.211,4,56,4z"
   id="path1"
   style="fill:#0c5009;fill-opacity:1" />
	<path
   fill="#231F20"
   d="M20,24c-0.553,0-1,0.447-1,1v26c0,0.553,0.447,1,1,1s1-0.447,1-1V25C21,24.447,20.553,24,20,24z"
   id="path2"
   style="fill:#0c5009;fill-opacity:1" />
	<path
   fill="#231F20"
   d="M32,24c-0.553,0-1,0.447-1,1v26c0,0.553,0.447,1,1,1s1-0.447,1-1V25C33,24.447,32.553,24,32,24z"
   id="path3"
   style="fill:#0c5009;fill-opacity:1" />
	<path
   fill="#231F20"
   d="M44,24c-0.553,0-1,0.447-1,1v26c0,0.553,0.447,1,1,1s1-0.447,1-1V25C45,24.447,44.553,24,44,24z"
   id="path4"
   style="fill:#0c5009;fill-opacity:1" />
	<path
   fill="#231F20"
   d="M9,16H7v44c0,2.211,1.789,4,4,4h42c2.211,0,4-1.789,4-4V16h-2H9z M23,51c0,1.657-1.343,3-3,3s-3-1.343-3-3   V25c0-1.657,1.343-3,3-3s3,1.343,3,3V51z M35,51c0,1.657-1.343,3-3,3s-3-1.343-3-3V25c0-1.657,1.343-3,3-3s3,1.343,3,3V51z M47,51   c0,1.657-1.343,3-3,3s-3-1.343-3-3V25c0-1.657,1.343-3,3-3s3,1.343,3,3V51z"
   id="path5"
   style="fill:#0c5009;fill-opacity:1" />
</g>
</svg>
